<svg xmlns="http://www.w3.org/2000/svg" viewBox="0 0 600 540"><rect width="600" height="540" rx="28" fill="#e0eadd"/><circle cx="475" cy="108" r="46" fill="#f4d8a0"/><path d="M0 334 Q140 190 290 320 T600 284V540H0" fill="#bdd1b8"/><path d="M0 426 Q130 336 285 422 T600 395V540H0" fill="#99b99d"/><path d="M127 275L300 139 473 275" fill="#4d7356"/><path d="M146 267V419H454V267L300 158Z" fill="#fbf7ed"/><path d="M117 281L300 135 482 281" fill="none" stroke="#2f5843" stroke-width="18" stroke-linecap="round"/><rect x="270" y="300" width="63" height="119" rx="5" fill="#51775c"/><circle cx="320" cy="365" r="4" fill="#f6d8a1"/><g fill="#cee0d3" stroke="#769681" stroke-width="7"><rect x="182" y="296" width="56" height="64" rx="4"/><rect x="366" y="296" width="56" height="64" rx="4"/></g><path d="M210 296V360M182 328H238M394 296V360M366 328H422" stroke="#769681" stroke-width="4"/><path d="M271 421L241 540H380L332 421" fill="#e7ddc4"/><g fill="#547c5e"><circle cx="87" cy="326" r="41"/><circle cx="78" cy="282" r="31"/><circle cx="506" cy="337" r="40"/><circle cx="517" cy="292" r="30"/></g><path d="M85 342V447M509 352V457" stroke="#775f4c" stroke-width="11"/><g fill="#ecedcf"><circle cx="120" cy="468" r="8"/><circle cx="143" cy="489" r="7"/><circle cx="442" cy="478" r="8"/><circle cx="479" cy="497" r="6"/></g></svg>
